<?xml version="1.0" encoding="utf-8"?>
<!-- Generator: Adobe Illustrator 24.2.1, SVG Export Plug-In . SVG Version: 6.00 Build 0)  -->
<svg version="1.1" baseProfile="basic" id="Layer_1"
	 xmlns="http://www.w3.org/2000/svg" xmlns:xlink="http://www.w3.org/1999/xlink" x="0px" y="0px" width="423.39px"
	 height="277.47px" viewBox="0 0 423.39 277.47" xml:space="preserve">
<style type="text/css">
	.st0{fill:#FFFFFF;}
</style>
<g>
	<path d="M234.39,0c6.29,4.57,7.97,11.68,9.67,18.55c0.47,1.92-0.8,5.06-2.34,6.54c-5.85,5.63-12.19,10.75-18.2,16.22
		c-1.48,1.35-3.57,3.5-3.34,4.96c0.58,3.72,3.88,2.56,6.48,2.29c12.03-1.22,23.78,0.39,36.83,3.4c-2.3,1.31-3.46,1.98-4.63,2.64
		c-6.37,3.57-12.84,6.97-19.08,10.76c-3,1.82-5.57,2.87-9.22,1.61c-10.11-3.5-20.48-4.03-30.99-1.72c-3.19,0.7-6.48,0.91-9.84,1.36
		c-0.77-9.23,3.19-19.32-6.61-25.86c-8.14-5.43-16.88-7.5-26.79-5.53c1.01-0.64,2.02-1.26,3.02-1.91
		c8.19-5.36,16.54-10.51,24.51-16.18c5.25-3.74,9.56-4.36,14.33-0.09c3.09,2.77,5.34,2.62,8.64,0.26
		c8.36-5.99,17.02-11.56,25.57-17.3C233.05,0,233.72,0,234.39,0z"/>
	<path d="M423.39,60c-4.82,0.63-9.63,1.26-15.97,2.08c4.02-6.74,1.57-10.38-2.77-13.95c-1.58-1.3-2.03-4.44-2.25-6.8
		c-0.55-5.83-1.43-5.82-6.64-3.69c-16.28,6.68-32.83,12.72-49.29,18.98c-0.38,0.14-0.92-0.15-2.42-0.43c6-10,6.44-22.92,20.79-26.67
		c9.92-2.59,19.27-7.34,28.91-11.02c3.08-1.18,4.58-2.81,4.93-6.46c0.81-8.52,4.83-11.29,11.68-8.97c4.57,1.55,6.59,4.96,4.55,10.44
		c-3.63,9.78-1.25,17.72,5.6,24.96c1.2,1.27,1.92,3,2.86,4.52c0,0.67,0,1.33,0,2c-4.28,4.33-3.62,8.67,0,13
		C423.39,58.67,423.39,59.33,423.39,60z"/>
	<path class="st0" d="M423.39,58c-3.62-4.33-4.28-8.67,0-13C423.39,49.33,423.39,53.67,423.39,58z"/>
	<path d="M67.71,276.58c3.36-9.37,6.72-18.75,10.09-28.12c-0.21-0.19-0.42-0.37-0.62-0.56c-2.86,3.87-5.91,7.6-8.52,11.63
		c-2.98,4.59-5.24,9.69-8.5,14.05c-1.24,1.66-4.55,2.93-6.64,2.61c-7.37-1.13-14.64-2.96-21.91-4.66c-3.2-0.75-3.75-2.43-2.03-5.47
		c7.87-13.9,15.49-27.94,23.28-41.89c4.99-8.94,10.67-17.17,20.54-21.67c2.9-1.32,5.33-3.97,7.59-6.38
		c18.44-19.66,36.8-39.39,55.17-59.12c1.28-1.37,2.41-2.88,3.19-5.04c-18.41,2.61-34.64,11.12-51.89,17.45
		c0.97-1.27,1.94-2.54,3.73-4.89c-7.21,3.18-13.21,5.83-19.22,8.48c-0.52-0.57-1.05-1.13-1.57-1.7c1.99-4.05,3.61-8.33,6.05-12.09
		c6.19-9.57,15.14-16.23,25.7-19.74c20.81-6.91,41.93-12.91,62.94-19.24c1.05-0.32,2.23-0.21,4.28-0.38
		c-1.01,2.63-1.77,4.68-2.58,6.72c-1.45,3.65-0.37,5.38,3.52,5.5c13.79,0.42,27.58,0.75,41.37,1.24c5.66,0.2,10.67-0.81,15.31-4.57
		c5.41-4.39,11.37-8.13,17.2-11.99c3.14-2.08,3.9-4.66,2.83-8.15c-1.42-4.61-2.49-9.33-4.01-13.9c-0.98-2.94-0.77-5.29,2.03-6.87
		c5.76-3.27,11.53-6.55,17.46-9.49c0.71-0.35,3.47,1.25,3.57,2.14c1.23,10.54,5.5,19.07,14.81,24.76c1.13,0.69,2.18,2.34,2.33,3.65
		c0.77,7.03,1.24,14.1,1.82,21.16c-0.6,0.17-1.21,0.34-1.81,0.51c-1.23-2.48-2.51-4.94-3.69-7.44c-5.47-11.64-7.04-11.74-15.58-2.25
		c-3.02,3.36-3.82,6.36-1.85,10.28c0.44,0.88,0.63,1.89,0.93,2.85c3.37,10.92,2.99,11.94-6.43,18.38
		c-26.39,18.03-52.91,35.87-79.09,54.2c-12.81,8.97-25.05,18.75-37.33,28.44c-1.79,1.41-2.9,4.26-3.36,6.63
		c-0.62,3.23-0.19,6.64-0.4,9.96c-0.36,5.94-2.96,8.96-9.63,11c-1.85-7.89-3.64-15.76-5.56-23.61c-0.47-1.91-1.1-3.89-2.16-5.51
		c-0.64-0.99-2.25-1.35-3.42-1.99c-0.24,1.3-0.94,2.72-0.64,3.89c1.7,6.76,3.65,13.46,5.48,20.2c2.37,8.77,0.08,15.66-7.13,21.65
		c-10.22,8.47-21.55,14.31-34.33,17.57c-3.2,0.81-6.36,1.77-9.54,2.67C68.87,277.18,68.29,276.88,67.71,276.58z M173.28,162.53
		c0.39-0.32,0.79-0.64,1.18-0.96c1.99,2.38,4.22,4.6,5.9,7.18c2.74,4.22,5.49,4.88,9.74,1.79c7.4-5.37,15.26-10.11,22.72-15.4
		c13.72-9.73,11.59-5.5,8.47-21.51c-1.21-6.19-1.85-6.41-7.61-3.94c-24.96,10.69-44.86,28.8-65.98,45.12
		c-0.52,0.4-0.98,0.93-1.33,1.48c-0.57,0.91-1.02,1.9-1.46,2.73c4.09,3.23,7.87,6.22,11.64,9.2c-0.3,0.34-0.6,0.68-0.9,1.03
		c-3.44-1.96-6.73-4.29-10.37-5.72c-1.84-0.72-5.16-0.64-6.38,0.55c-6.77,6.63-13.13,13.68-19.55,20.66
		c-2.1,2.28-1.41,3.93,1.25,5.49c7.12,4.16,13.91,5.28,20.58-0.89c1.94-1.79,4.59-2.84,6.43-4.71c9.5-9.66,20.95-16.7,32.01-24.28
		c2.83-1.94,2.14-4.11,0.67-6.45C177.96,170.12,175.63,166.32,173.28,162.53z"/>
	<path d="M7.72,72.95c-1.64-1.16-2.61-1.79-3.51-2.51c-2.65-2.15-1.27-3.75,0.89-4.94c0.78-0.43,2.05-0.48,2.91-0.17
		c7.89,2.82,13.5-0.96,19.17-5.86c7.81-6.73,16.12-12.88,24.13-19.39c1.5-1.22,3.51-2.87,3.68-4.49c0.56-5.29,4.37-6.53,8.21-8.83
		c7.67-4.6,14.72-10.25,22-15.5c5.63-4.06,7.07-3.85,11.57,1.43c1.79,2.1,2.15,3.91,0.27,6.15c-3.18,3.8-1.79,6.19,2.5,7.77
		c14.96,5.49,29.89,11.06,44.64,16.53c-0.62,7.48-1.29,15.6-2.02,24.41c-7.58-3.3-14.68-6.5-21.86-9.5
		C106.17,52.13,92,46.33,77.82,40.56c-1.16-0.47-2.61-0.83-3.78-0.58c-5.13,1.08-10.29,2.15-15.28,3.73
		c-2.61,0.83-5.16,2.37-7.25,4.15c-8.37,7.12-16.75,14.25-24.7,21.83c-3.43,3.27-5.88,7.57-8.65,11.5c-1.57,2.23-2.82,3.8-6.05,2.15
		c-1.4-0.71-3.79,0.73-5.76,0.9c-2.1,0.18-4.23,0.02-6.35,0.01c0.7-1.68,1.15-3.54,2.17-4.98C3.68,77.15,5.6,75.32,7.72,72.95z"/>
	<path d="M267,145.51c6.97-9.66,13.75-19.47,21.04-28.89c2.16-2.79,3.89-5.18,3.55-8.82c-0.26-2.81-0.11-5.66-0.19-8.49
		c-0.23-7.86,5.1-11.4,12.54-8.18c13.44,5.82,26.8,11.84,40.27,17.58c4.52,1.92,9.29,3.25,13.39,4.67
		c-4.26,8.6-8.06,17.02-12.62,25.01c-1.36,2.39-4.65,4.14-7.43,5.17c-11.52,4.24-11.52,4.07-17.42-6.39
		c-4.6-8.15-11.02-14.16-20.91-13.86c-10.04,0.3-17.63,5.35-22.31,14.41c-1.22,2.37-2.1,4.97-3.66,7.08c-1,1.34-2.96,1.97-4.49,2.91
		C268.16,146.97,267.58,146.24,267,145.51z"/>
	<path d="M310.05,73.11c1.88-11.75,0.77-21.99-8.77-29.12c-9.25-6.91-19.03-6.99-28.9-0.17c-0.36-0.59-0.72-1.18-1.08-1.78
		c5.03-5.85,9.83-11.92,15.15-17.49c5.93-6.2,12.51-11.78,18.44-17.98c2.5-2.61,4.49-3.42,7.7-1.56c3.3,1.92,6.86,3.39,10.25,5.15
		c5.32,2.76,6.8,6.01,5.46,11.86c-0.22,0.96-0.6,1.89-0.91,2.84c-2.97,9-2.97,9,6.66,10.71c10.63,1.89,10.16,1.81,8.36,12.31
		c-1.41,8.23-5.22,13.33-13.15,16.16C323.05,66.27,317.25,69.65,310.05,73.11z"/>
	<path d="M140.41,233.66c0-4.75-0.32-8.6,0.14-12.35c0.21-1.69,1.64-3.62,3.07-4.7c36.95-28.08,74.02-55.99,114.08-79.62
		c0.43-0.25,0.84-0.55,1.27-0.79c10.84-6.08,12.69-10.85,8.97-23.14c-2.44-8.06-2.44-8.06,5.96-13.38
		c1.92,5.55,3.84,10.89,5.56,16.29c0.26,0.8-0.16,2.01-0.63,2.82c-2.34,4.02-4.94,7.88-7.18,11.95
		c-5.87,10.67-14.91,17.29-25.22,23.73c-18.84,11.77-36.5,25.48-54.3,38.85c-16.22,12.18-31.98,24.98-47.95,37.5
		C143.17,231.62,142.12,232.37,140.41,233.66z"/>
	<path d="M347.85,140.47c5.55-8.63,10.29-16.31,15.47-23.67c0.71-1.01,3.82-1.11,5.45-0.55c15.25,5.21,30.45,10.57,45.55,16.18
		c1.49,0.55,3.03,3.05,3.16,4.75c0.23,3.08-0.48,6.26-0.98,9.37c-0.89,5.55-5.45,7.1-9.97,3.69c-1.88-1.42-4.16-2.86-6.41-3.17
		c-15.63-2.1-31.29-3.9-46.94-5.81C352.05,141.14,350.93,140.94,347.85,140.47z"/>
	<path d="M226.68,73.19c-6.4,13.01-15.16,22.29-25.56,29.86c-6.29,4.58-13.64,3.35-20.61,1.18c-0.85-0.26-1.88-2.75-1.51-3.71
		c3.01-7.9,6.03-15.84,9.76-23.41c0.96-1.95,4.4-3.66,6.77-3.75C205.9,72.96,216.29,73.19,226.68,73.19z"/>
	<path d="M395.83,221.52c-1.81,1.25-3.62,2.5-6.41,4.42c0.14-2.55-0.23-4.28,0.38-5.54c4.63-9.67,4.53-19.98,4.53-30.32
		c0-5.99,0.33-11.99,0.03-17.97c-0.09-1.74-1.4-3.97-2.85-5c-3.36-2.38-6.46-5.03-5-9.29c1.1-3.22,3.32-7.7,5.9-8.38
		c3.93-1.04,9.42-1.78,12.18,3.68c0.35,0.7,1.11,1.21,1.71,1.79c3.19,3.08,3.43,5.92-0.13,8.04c-3.02,1.8-3.41,4.19-3.49,7.07
		c-0.35,12.14-0.9,24.28-0.9,36.42c0,3.63,1.56,7.27,2.42,10.9c0.04,0.15,0.28,0.31,0.25,0.41c-1.27,4.96-0.62,9.81,0.83,14.62
		c-3.01,0.71-6.16,2.32-8.99,1.87c-2.96-0.47-5.26-3.15-3.23-6.82c1.02-1.83,2.37-3.47,3.58-5.19
		C396.36,222.01,396.1,221.76,395.83,221.52z"/>
	<path d="M29.03,208.71c1-2.39,1.75-4.16,3.05-7.27c-6.6,5.44-8.22,13.56-15.84,17.47c0.23-2.07,0.07-3.28,0.52-4.17
		c3.25-6.37,6.5-12.75,10.06-18.95c0.92-1.6,2.8-2.83,4.51-3.75c13.7-7.41,25.69-16.96,36.75-27.92c4.36-4.32,10.1-7.29,15.39-10.59
		c1.35-0.84,3.38-0.61,5.2-0.89c-0.34,7.76-1.76,9.22-8.12,10.87c-2.79,0.73-5.58,2.29-7.83,4.13c-8.75,7.16-17.19,14.7-25.94,21.86
		c-4.43,3.62-7.51,7.7-8.37,13.54C37.72,207.84,34.45,209.56,29.03,208.71z"/>
	<path d="M185.37,56c0.1,5.11-0.6,5.95-5.38,4.25c-4.24-1.51-8.06-4.16-12.2-6c-1.82-0.81-4.49-1.8-5.9-1.06
		c-4.21,2.22-8.03,0.81-12.09,0.07c-4.05-0.73-3.87-2.9-2.4-5.72c3.46-6.61,9.31-9.27,16.4-9.45
		C172.77,37.87,186.21,45.73,185.37,56z"/>
	<path d="M146.12,55.67c4.17,1.17,7.9,2.29,11.67,3.28c7.23,1.89,14.48,3.7,21.71,5.55c3.75,0.96,4.51,3,2.19,6.15
		c-6.55,8.88-16.19,10.25-25.87,5.02C147.62,71.24,145.81,64.62,146.12,55.67z"/>
	<path d="M305.32,58.35c0.27,4.5,0.77,8.14,0.65,11.77c-0.16,4.77-4.38,8.55-10.8,10.26c-7.55,2.02-15.69-1.04-19.76-7.19
		c-1.61-2.44-1.25-4.11,1.4-5.05C286.03,64.9,295.29,61.78,305.32,58.35z"/>
	<path d="M279.05,146.48c2.77-5.93,5.61-11.79,11.68-15.4c4.69-2.79,9.24-2.31,13.62,0.54c4.9,3.18,7.63,7.8,8.23,13.6
		c0.07,0.7-0.36,1.69-0.9,2.17c-2.4,2.18-11.12,1.8-13.22-0.64c-2.42-2.82-4.8-2.51-7.96-1.07c-3.24,1.47-6.92,1.98-10.41,2.91
		C279.75,147.89,279.4,147.18,279.05,146.48z"/>
	<path d="M303.16,53.89c-3.84,3.1-7.93,5.34-13.11,3.67c-3.66-1.18-6.48-0.23-8.86,2.63c-0.74,0.89-1.5,1.94-2.49,2.39
		c-1.74,0.8-3.67,1.19-5.53,1.75c-0.46-1.67-1.27-3.33-1.31-5.01c-0.26-10.81,2.06-14.09,11.26-16.37
		C290.77,41.05,298.66,45.26,303.16,53.89z"/>
	<path d="M278.46,151.3c3.4-0.23,6.12-0.68,8.82-0.56c7.48,0.33,14.96,0.8,22.42,1.44c1.49,0.13,3.68,0.9,4.12,1.96
		c0.42,1.04-0.64,3.14-1.64,4.23c-4.99,5.44-11,9.8-18.65,8.64C285.48,165.8,281.63,159.4,278.46,151.3z"/>
	<path d="M238.76,78.34c4.29,10.34,3.3,13.23-5.66,17.48c-5.23,2.48-10.54,4.79-15.83,7.12c-0.38,0.17-0.94-0.06-2.15-0.17
		C222.4,93.7,228.61,84.32,238.76,78.34z"/>
</g>
</svg>
