<?xml version="1.0" encoding="utf-8"?>
<!-- Generator: Adobe Illustrator 24.2.1, SVG Export Plug-In . SVG Version: 6.00 Build 0)  -->
<svg version="1.1" baseProfile="basic" id="Layer_1"
	 xmlns="http://www.w3.org/2000/svg" xmlns:xlink="http://www.w3.org/1999/xlink" x="0px" y="0px" width="1366px" height="768px"
	 viewBox="0 0 1366 768" xml:space="preserve">
<g>
	<path d="M854,395c-1.39-1.45-3.11-0.89-4.72-0.68c-14.83,1.96-29.66,3.95-44.53,5.94c-2.02,1.47-3.9,3.07-5.2,4.7
		c-0.46,1.1-0.04,1.67,0.12,2.3c1.25,5.22-1.15,8.46-6.46,8.66c-1.66,0.06-3.33-0.09-4.99-0.12c-1.49-0.02-2.98,0-4.1,0
		c-2.52,1.19-4.26,2.61-5.76,4.5c-5.68,7.12-11.48,14.13-17.51,21.51c3.56,1.76,7.92,1.1,9.71,5.08c6.45,1.21,12.43,4.04,19.85,3.72
		c0.91,0.41,2.57,1.17,4.67,2.13c-1.66,1.06-3.08,1.97-4.67,2.99c-6.29-4.3-13.88-4.16-20.46-6.21c-1.98-0.31-3.04,1.27-5.55,1.12
		c-4.45-1.84-9.83-3.79-14.81-7.45c4.86-9.95,10.98-18.46,16.08-28.22c-8.67-3.96-16.99-2.2-25.32-0.64
		c-2.07,0.05-3.91-0.56-5.05-2.49c-0.57-1.58-0.2-2.91,1.25-4.2c10.88,0.11,19.35-5.28,27.04-13.02c-2.2-2.24-6.18-1.26-7.52-4.72
		c-0.34-1.4,0.29-2.68,1.33-3.88c6.09-1.55,12.32-0.61,18.96-1.57c2.9-3.63,7.53-4.87,12.51-5.54c-1.25-2.22-2.92-1.41-4.29-1.54
		c-1.32-0.12-2.67,0.07-3.99-0.05c-4.04-0.34-4.79-1.84-2.94-6.28c6.86-1.04,13.91-2.11,21.31-3.22
		c6.17-5.92,12.51-12.01,18.72-17.97c0.01-2.24-2.4-1.12-2.77-2.48c-0.67-1.1-0.13-1.94,0.58-2.97c4.4-1.98,9.39-2.7,14.14-4.38
		c1.61,0.31,3.23,0.63,4.74,0.92c6.67-1.13,12.98-3.42,19.64-3.94c0,1.33,0,2.67,0,4c-1.5-0.62-2.97-0.04-4.4,0.24
		c-4.88,0.97-9.73,2.05-14.51,3.07c-5.6,4.48-10.97,11.19-22.86,28.62c0.38,1.28-0.69,2.91,0.31,4.49c1.38,0.7,2.78,1.11,4.23,1.23
		c8.82-2.49,17.11-6.61,26.35-7.42c3.4,1.76,7.18,2.08,10.88,2.76c0,1,0,2,0,3c-0.65,0.02-1.53-0.22-1.91,0.11
		c-2.89,2.52-6.51,1.92-9.87,2.51c3.95-0.23,7.83,1.03,11.79,0.38C854,385,854,390,854,395z M768.29,409.85
		c2.89-2.75,3.4-3.66,4.11-7.5c-4.59,2.17-9.36,3.4-14.18,6.15c3.48,0.72,5.61-1.86,8.07-1.37
		C767.45,407.83,766.62,409.32,768.29,409.85z"/>
	<path d="M693.45,377.37c4.17,0.51,7.28,3.86,11.6,4.92c4.09,1,8.59,0.36,13.07,3.01c-1.49,0.8-2.54,1.37-3.49,1.88
		c-6.29-2.63-12.5-4.73-19.99-3.64c-3.16-1.35-7.01-2.86-10.94-5.5c3.29-7.56,8.34-14,12.01-21.69c-6.69-2.7-13.14-1.59-20.14-0.37
		c-0.11-0.04-0.76-0.21-1.34-0.52c-0.73-0.39-1.41-0.89-1.56-1.48c-0.34-1.21,0.15-1.9,0.76-2.84c8.15-0.36,14.85-4.04,20.65-10.08
		c-1.92-1.62-4.32-1.37-5.49-3.35c-0.53-1.19,0.12-2.13,1.04-3.23c4.51-1.37,9.48,0.01,14.54-1.52c1.88-2.48,5.34-2.87,8.73-4.27
		c-2.85-1.53-5.74,0.16-7.97-1.58c-1.04-0.9-1.07-1.98-0.36-3.71c5.04-1.6,10.77-1.49,16.78-2.97c4.41-4.25,9.19-8.85,13.87-13.36
		c-0.02-1.63-2.06-1.29-2.07-2.48c-0.04-0.91,0.22-1.59,0.87-1.82c4.2-1.5,8.33-3.43,12.99-2.77c1.54,0.22,2.96-0.2,4.42-0.56
		c4.99-1.24,10.14-1.88,15.21-4.07c1.47,0.42,3.22,0.94,6.22,0.36c-1.92,1.59-3.54,2.24-2.98,4.07c-7.61-0.94-14.24,1.53-20.98,3.08
		c-1.9,0.44-3.29,2.15-4.5,3.79c-3.77,5.08-7.54,10.16-11.37,15.2c-1.24,1.64-2.28,3.28-1.68,5.57c1.89,2.11,4.1,1.26,6.34,0.51
		c5.52-1.84,10.91-4.14,16.65-4.68c9.94,3.52,19.39,0.31,29.75-1.22c0.64,0.34,2.18,0.93,4.43,1.1c-1.79,1.11-3.08,1.9-3.67,2.26
		c-10.36-0.23-19.73,1.22-28.85,4.19c7.6,1.51,15.98-1.97,23.03,3.13c0.3,1.71-0.77,2.39-1.7,2.99c-4.93,3.22-9.99,5.3-16.26,5.22
		c-6.76-0.08-13.55,1.39-20.32,2.25c-4.95,0.63-9.89,1.38-14.98,2.1c-1.64,0.91-3.13,2.2-4.3,3.94c-0.07,1.46,0.99,2.84,0.7,3.62
		c-0.73,2.26-1.81,3.25-3.22,4.03c-2.25,0.61-4.58,0.23-6.9,0.15c-2.34-0.07-4.3,0.74-5.75,2.48c-4.26,5.12-8.42,10.32-12.6,15.51
		C693.22,375.63,692.61,376.31,693.45,377.37z M701.08,347.08c-3.99,1.39-7.33,2.39-10.73,4.49c2.52,0.55,4.09-1.57,5.98-0.98
		c0.78,0.48,0.41,1.87,2.09,1.61C699.46,351.11,700.44,349.67,701.08,347.08z"/>
	<path d="M640.44,408.55c6.46,1.06,13.78-1.91,20.27,3.04c-3.84,4.43-8.82,6.8-14.1,6.74c-4.38-0.05-8.59,0.65-12.85,1.05
		c-6.79,0.63-13.52,1.83-20.35,2.8c-1.34,0.6-2.38,1.67-3.33,2.9c-0.64,1.57,0.54,3.28-0.26,4.87c-1.24,2.52-3.54,3.03-5.93,2.62
		c-4.19-0.72-6.96,1.08-9.38,4.26c-3.22,4.24-6.67,8.3-10.02,12.44c6.52,4.92,14.25,5.9,21.83,7.44c-0.64,1.57-1.69,1.61-2.59,2
		c-5.53-2.04-11.12-4.05-17.65-3.14c-2.8-1.49-6.54-2.11-9.52-5.27c3.48-5.99,6.89-11.85,10.53-18.11
		c-5.74-3.29-11.38-1.3-17.79-0.69c-1.24-0.37-3.04-1.07-1.92-4.11c7.19-0.45,13.19-3.51,18.39-9.01c-1.66-0.79-2.98-1.42-3.97-1.9
		c-1.15-1.38-0.98-2.44-0.11-3.69c3.84-1.43,8.1-0.4,12.44-1.18c1.85-2.15,4.88-2.71,7.8-4.07c-2.38-1.21-4.69,0-6.61-1.18
		c-1.05-0.92-1.12-1.96-0.27-3.32c4.42-1.55,9.36-1.32,14.53-2.7c3.73-3.58,7.8-7.48,11.73-11.26c0.72-1.67-1.66-1.7-1.09-3.58
		c2.47-2.38,6.39-3.23,9.66-3.09c5.7,0.24,10.81-1.69,16.11-2.82c2.5-0.54,4.79-0.89,7.26-0.39c-0.52,1.01-1.03,1.97-1.58,3.04
		c-5.79-0.82-11.15,1.4-16.7,2.29c-2.03,0.33-3.61,1.7-4.85,3.33c-3.63,4.78-7.18,9.6-10.8,14.39c-0.97,1.28-1.36,2.63-0.95,4.31
		c1.26,1.41,2.82,1.27,4.49,0.7c2.36-0.81,4.77-1.5,7.1-2.38c4.12-1.55,8.25-2.49,12.6-0.93c2.28,0.82,4.63,0.31,6.94,0.05
		c4.77-0.54,9.63-0.62,14.19-2.51c1.22,0.43,2.46,0.87,3.83,1.35c-0.51,1.58-2.26,1.27-2.62,1.83
		C656.14,404.73,648,405.42,640.44,408.55z M584.86,426.41c1.73,0.18,3.04,1,4.22,2.01c1.45-1.18,2.14-2.48,2.7-4.87
		C588.95,424.73,586.91,425.57,584.86,426.41z"/>
	<path d="M637.09,304.34c-0.46,0.76-0.8,1.33-1.31,2.18c-4.14-0.45-8.22,1.02-12.42,1.69c-2.23,0.35-4.12,1.39-5.48,3.18
		c-2.92,3.85-5.75,7.76-8.65,11.62c-0.84,1.12-1.42,2.24-0.88,3.66c1.29,1.32,2.74,0.89,4.18,0.42c2.38-0.77,4.74-1.59,7.12-2.33
		c2.07-0.64,4.2-1.36,6.36-0.66c5.85,1.88,11.55,0.07,17.26-0.74c1.81-0.26,3.42-0.68,5.21,0.15c-0.85,1.91-2.14,1.82-3.76,1.75
		c-4.67-0.2-9.25,0.76-13.83,1.55c-1.16,0.2-2.24,0.63-3.05,1.91c5.12,0.07,10.35-1.33,15.24,2.12c-3.04,3.76-7.08,5.67-11.31,5.66
		c-6.38-0.01-12.5,1.52-18.78,1.94c-1.99,0.13-3.95,0.61-5.94,0.74c-2.31,0.15-4.16,1.03-5.72,2.98c-0.46,1.67,0.67,3.95-1.88,5.71
		c-1.8,0.95-4.39-0.16-7.46,0.57c-4.44,3.5-7.53,8.9-11.7,13.51c5.41,4.33,11.79,5.05,18.09,6.25c-0.72,1.11-1.45,1.46-2.41,1.68
		c-4.51-1.94-9.25-3.29-14.53-2.66c-2.41-1.1-5.15-1.86-7.55-3.87c1.91-5.51,5.81-9.78,8.15-15.02c-1.13-1.82-2.89-2.11-4.75-1.97
		c-2.65,0.2-5.3,0.44-7.93,0.79c-1.9,0.26-3.23-0.08-3.66-2.7c5.73-1.29,11.26-2.87,15.08-7.63c-0.86-1.63-3.33-1.23-3.62-3.85
		c2.77-3.24,7.01-0.93,11.23-2.41c1.23-0.99,3.5-1.96,6.25-2.81c-2.03-1.6-4.96,0.36-6.16-2.21c1.12-1.82,1.12-1.82,12.43-3.92
		c3.04-2.9,6.39-6.11,9.54-9.12c0.3-0.82,0.03-1.21-0.2-1.65c-0.21-0.41-0.25-0.91-0.37-1.41c1.81-1.86,4.26-1.85,6.46-2.46
		c2.25-0.62,4.61,0.18,6.92-0.62c2.19-0.76,4.57-0.94,6.8-1.6C632.29,304.1,634.47,303.27,637.09,304.34z M584.22,344.73
		c0.87-1,1.79-1.76,1.38-3.14c-1.25-0.36-2.11,0.39-3.06,1.01C582.79,343.39,583.05,344.15,584.22,344.73z"/>
</g>
</svg>
